# xmcd
#
# Track frame offsets: 
#        150
#        16217
#        29410
#        45542
#        59472
#        75970
#        94517
#        109845
#        128602
#        141325
#        153625
#
# Disc length: 2193 seconds
#
# Revision: 0
# Processed by: cddbd v1.5.2PL0 Copyright (c) Steve Scherf et al.
# Submitted via: ExactAudioCopy v0.99pb5
#
DISCID=84088f0b
DTITLE=Michelle Shocked - Short sharp shocked
DYEAR=1988
DGENRE=Rock
TTITLE0=When i grow up
TTITLE1=Hello Hopeville
TTITLE2=Memories of east Texas
TTITLE3=Gladewater (Macking the run to)
TTITLE4=Grafiti limbo
TTITLE5=If love was a train
TTITLE6=Anchorade
TTITLE7=The L&L don't stop here anymore
TTITLE8=Vx Fx Dx
TTITLE9=Black window
TTITLE10=Fog town
EXTD=
EXTT0=
EXTT1=
EXTT2=
EXTT3=
EXTT4=
EXTT5=
EXTT6=
EXTT7=
EXTT8=
EXTT9=
EXTT10=
PLAYORDER=
